<svg width="714" height="146" viewBox="0 0 714 146" fill="none" xmlns="http://www.w3.org/2000/svg">
<path d="M62.8905 145.137L0.678223 108.572L30.1381 65.4214L86.2853 61.4357L124.3 108.645L62.8905 145.137Z" fill="url(#paint0_linear_731_631)"/>
<path d="M62.8183 0.889893L0.678223 37.2372V108.547L62.2955 73.9305L62.8183 0.889893Z" fill="url(#paint1_linear_731_631)"/>
<g opacity="0.7" filter="url(#filter0_f_731_631)">
<ellipse cx="61.9244" cy="99.2491" rx="31.3306" ry="17.1174" fill="#24007B"/>
</g>
<path d="M62.4431 0.923462L124.322 37.2708V108.58L62.7045 73.9641L62.4431 0.923462Z" fill="url(#paint2_linear_731_631)"/>
<path d="M31.0918 91.4486V55.2362L62.2126 72.9842L62.5012 109.132L31.0918 91.4486Z" fill="url(#paint3_linear_731_631)"/>
<path d="M93.555 55.2362L62.23 72.9666L62.4992 109.145L93.555 91.2143V55.2362Z" fill="#A09EFF"/>
<path d="M62.2258 36.8599L31.0586 55.229L62.2258 72.9809L93.5682 55.2361L62.2258 36.8599Z" fill="url(#paint4_linear_731_631)"/>
<path d="M154.45 119.537L184.834 38.4652C185.122 37.6012 185.362 36.8812 185.554 36.3052C185.746 35.6332 185.938 35.0092 186.13 34.4332C186.322 33.8572 186.466 33.2812 186.562 32.7052C186.754 32.1292 186.898 31.4572 186.994 30.6892C186.994 29.9212 186.898 29.2972 186.706 28.8172C186.514 28.2412 186.082 27.6652 185.41 27.0892C184.834 26.6092 183.97 26.2732 182.818 26.0812C181.762 25.7932 180.658 25.6492 179.506 25.6492C178.354 25.6492 177.442 25.2652 176.77 24.4972C176.098 23.7292 175.762 22.6732 175.762 21.3292C175.762 20.1772 176.098 19.2652 176.77 18.5932C177.538 17.9212 178.354 17.5852 179.218 17.5852H205.426L244.306 119.537H227.746L215.362 86.9932H179.938L167.698 119.537H154.45ZM197.362 38.7532L183.682 77.0572H212.05L197.362 38.7532ZM365.571 109.889V119.537C363.459 120.017 361.059 120.353 358.371 120.545C355.683 120.833 353.619 120.977 352.179 120.977C347.283 120.977 343.395 120.497 340.515 119.537C337.635 118.577 335.427 117.137 333.891 115.217C332.355 113.393 331.347 111.137 330.867 108.449C330.483 105.761 330.291 102.689 330.291 99.2332V58.6252H318.771V48.6892H330.291V37.1692L344.259 24.0652V48.6892H364.131V58.6252H344.403V101.825C344.403 103.937 344.595 105.617 344.979 106.865C345.459 108.017 346.179 108.881 347.139 109.457C348.579 110.321 350.931 110.849 354.195 111.041C357.459 111.137 361.251 110.753 365.571 109.889ZM419.658 119.537V111.761C417.066 114.641 413.802 116.897 409.866 118.529C406.026 120.257 400.938 121.121 394.602 121.121C388.746 121.121 383.994 119.297 380.346 115.649C376.698 112.001 374.874 107.297 374.874 101.537C374.874 96.7372 376.074 92.7052 378.474 89.4412C380.97 86.1772 384.09 83.5372 387.834 81.5212C391.578 79.5052 395.658 78.0652 400.074 77.2012C404.586 76.3372 408.858 75.9052 412.89 75.9052C413.466 75.9052 414.138 75.9052 414.906 75.9052C415.674 75.9052 416.394 75.8572 417.066 75.7612C417.738 75.7612 418.314 75.7612 418.794 75.7612C419.274 75.6652 419.562 75.6172 419.658 75.6172V71.8732C419.658 70.1452 419.418 68.3692 418.938 66.5452C418.458 64.6252 417.69 62.9452 416.634 61.5052C415.482 59.9692 413.946 58.7212 412.026 57.7612C410.106 56.8012 407.706 56.3212 404.826 56.3212C400.506 56.3212 397.146 57.3772 394.746 59.4892C392.346 61.6012 391.146 64.6732 391.146 68.7052H375.738C375.738 66.3052 376.266 63.8572 377.322 61.3612C378.474 58.7692 380.298 56.4172 382.794 54.3052C385.194 52.2892 388.266 50.6092 392.01 49.2652C395.754 47.9212 400.218 47.2492 405.402 47.2492C414.33 47.2492 421.29 49.5052 426.282 54.0172C431.274 58.4332 433.77 64.5292 433.77 72.3052V119.537H419.658ZM419.658 94.1932V84.6892C417.738 84.6892 415.386 84.7852 412.602 84.9772C409.818 85.0732 407.082 85.4092 404.394 85.9852C400.458 86.9452 397.098 88.4812 394.314 90.5932C391.53 92.7052 390.138 95.8732 390.138 100.097C390.138 101.057 390.234 102.161 390.426 103.409C390.714 104.561 391.242 105.617 392.01 106.577C392.778 107.633 393.834 108.497 395.178 109.169C396.522 109.841 398.298 110.177 400.506 110.177C402.906 110.177 405.21 109.841 407.418 109.169C409.722 108.401 411.786 107.297 413.61 105.857C415.434 104.513 416.874 102.881 417.93 100.961C419.082 98.9452 419.658 96.6892 419.658 94.1932ZM455.735 119.537V37.6012C455.735 33.4732 455.063 30.4492 453.719 28.5292C452.471 26.5132 450.119 25.5052 446.663 25.5052C445.223 25.5052 444.167 25.1212 443.495 24.3532C442.919 23.5852 442.631 22.6252 442.631 21.4732C442.631 20.5132 443.015 19.6492 443.783 18.8812C444.647 18.1132 445.559 17.7292 446.519 17.7292H463.367C465.959 17.7292 467.831 18.5932 468.983 20.3212C470.231 21.9532 470.855 23.5852 470.855 25.2172V99.2332C470.855 103.553 471.863 106.289 473.879 107.441C475.991 108.497 478.775 109.025 482.231 109.025H498.791C501.287 109.025 503.207 108.737 504.551 108.161C505.991 107.489 507.095 106.577 507.863 105.425C508.727 104.177 509.351 102.737 509.735 101.105C510.119 99.3772 510.551 97.4092 511.031 95.2012C511.223 94.1452 511.751 93.3772 512.615 92.8972C513.575 92.3212 514.535 92.0812 515.495 92.1772C516.455 92.2732 517.319 92.6092 518.087 93.1852C518.855 93.7612 519.239 94.6252 519.239 95.7772L518.519 119.537H455.735ZM544.083 119.537H529.827V69.2812C529.827 65.9212 529.683 63.4252 529.395 61.7932C529.203 60.1612 528.435 58.9132 527.091 58.0492C526.419 57.7612 525.603 57.4732 524.643 57.1852C523.779 56.8972 522.915 56.7532 522.051 56.7532C520.611 56.7532 519.507 56.3212 518.739 55.4572C518.067 54.5932 517.731 53.5852 517.731 52.4332C517.731 51.4732 518.163 50.6092 519.027 49.8412C519.987 49.0732 520.947 48.6892 521.907 48.6892H536.451C538.755 48.6892 540.579 49.5532 541.923 51.2812C543.363 52.9132 544.083 54.5452 544.083 56.1772V119.537ZM525.219 26.8012C525.219 24.2092 526.179 21.9052 528.099 19.8892C530.115 17.8732 532.515 16.8652 535.299 16.8652C537.987 16.8652 540.339 17.8732 542.355 19.8892C544.371 21.9052 545.379 24.2092 545.379 26.8012C545.379 29.4892 544.371 31.8412 542.355 33.8572C540.339 35.7772 537.987 36.7372 535.299 36.7372C532.515 36.7372 530.115 35.7772 528.099 33.8572C526.179 31.8412 525.219 29.4892 525.219 26.8012ZM580.626 54.8812V63.0892C581.01 62.1292 581.826 60.7852 583.074 59.0572C584.322 57.3292 585.954 55.6492 587.97 54.0172C590.082 52.2892 592.578 50.8012 595.458 49.5532C598.338 48.2092 601.746 47.4892 605.682 47.3932C612.594 47.2972 618.114 49.1692 622.242 53.0092C626.37 56.7532 628.434 61.2172 628.434 66.4012V119.537H614.322V73.4572C614.322 69.7132 613.458 66.4012 611.73 63.5212C610.098 60.5452 606.834 59.1052 601.938 59.2012C599.538 59.2972 597.042 60.1612 594.45 61.7932C591.954 63.3292 589.65 65.2972 587.538 67.6972C585.522 70.1932 583.842 72.9772 582.498 76.0492C581.154 79.0252 580.482 82.0012 580.482 84.9772V119.537H566.37V68.2732C566.37 67.0252 566.322 65.9212 566.226 64.9612C566.226 63.9052 566.13 62.9452 565.938 62.0812C565.842 61.2172 565.554 60.4972 565.074 59.9212C564.69 59.2492 564.162 58.6252 563.49 58.0492C562.818 57.5692 562.002 57.2332 561.042 57.0412C560.178 56.7532 559.314 56.6092 558.45 56.6092C557.01 56.6092 555.906 56.2252 555.138 55.4572C554.466 54.5932 554.13 53.5852 554.13 52.4332C554.13 51.4732 554.466 50.6092 555.138 49.8412C555.906 49.0732 556.77 48.6892 557.73 48.6892H572.994C575.298 48.6892 577.122 49.5052 578.466 51.1372C579.906 52.6732 580.626 53.9212 580.626 54.8812ZM663.471 22.9132V73.7452L692.415 48.8332H708.831L674.847 78.4972L713.295 119.537H695.151L663.471 85.4092V119.537H649.215V35.1532C649.215 34.0012 649.167 32.9452 649.071 31.9852C649.071 30.9292 648.975 29.9692 648.783 29.1052C648.687 28.2412 648.399 27.5212 647.919 26.9452C647.535 26.2732 647.007 25.6492 646.335 25.0732C645.663 24.5932 644.847 24.2092 643.887 23.9212C643.023 23.6332 642.159 23.4892 641.295 23.4892C639.855 23.4892 638.751 23.1052 637.983 22.3372C637.311 21.5692 636.975 20.6092 636.975 19.4572C636.975 18.4972 637.311 17.6332 637.983 16.8652C638.751 16.0972 639.615 15.7132 640.575 15.7132H655.839C658.143 15.7132 659.967 16.5772 661.311 18.3052C662.751 19.9372 663.471 21.4732 663.471 22.9132Z" fill="black"/>
<path d="M309.642 115.937C307.53 117.089 304.074 118.289 299.274 119.537C294.474 120.785 289.194 121.265 283.434 120.977C278.25 120.881 273.402 119.921 268.89 118.097C264.378 116.369 260.394 113.873 256.938 110.609C253.578 107.345 250.938 103.361 249.018 98.6572C247.098 93.8572 246.138 88.3372 246.138 82.0972C246.138 76.5292 247.098 71.5852 249.018 67.2652C250.938 62.8492 253.53 59.2012 256.794 56.3212C260.154 53.3452 264.042 51.0892 268.458 49.5532C272.97 48.0172 277.818 47.2492 283.002 47.2492C286.938 47.2492 290.634 47.8252 294.09 48.9772C297.642 50.0332 300.762 51.5212 303.45 53.4412C306.042 55.4572 308.154 57.8092 309.786 60.4972C311.514 63.0892 312.522 65.9212 312.81 68.9932H297.114C297.114 65.4412 295.914 62.4652 293.514 60.0652C291.21 57.6652 287.226 56.4652 281.562 56.4652C278.874 56.4652 276.282 56.9932 273.786 58.0492C271.386 59.0092 269.226 60.5452 267.306 62.6572C265.386 64.6732 263.85 67.3132 262.698 70.5772C261.642 73.8412 261.114 77.6812 261.114 82.0972C261.114 90.7372 263.274 97.6492 267.594 102.833C271.914 108.017 278.394 110.945 287.034 111.617C288.186 111.809 290.682 111.713 294.522 111.329C298.458 110.849 302.538 109.745 306.762 108.017C307.914 107.537 308.922 107.585 309.786 108.161C310.746 108.641 311.418 109.361 311.802 110.321C312.09 111.185 312.09 112.193 311.802 113.345C311.514 114.401 310.794 115.265 309.642 115.937Z" fill="#4700F9"/>
<defs>
<filter id="filter0_f_731_631" x="6.59375" y="58.1317" width="110.661" height="82.2347" filterUnits="userSpaceOnUse" color-interpolation-filters="sRGB">
<feFlood flood-opacity="0" result="BackgroundImageFix"/>
<feBlend mode="normal" in="SourceGraphic" in2="BackgroundImageFix" result="shape"/>
<feGaussianBlur stdDeviation="12" result="effect1_foregroundBlur_731_631"/>
</filter>
<linearGradient id="paint0_linear_731_631" x1="26.9465" y1="127.748" x2="47.854" y2="74.9204" gradientUnits="userSpaceOnUse">
<stop stop-color="#4700F9"/>
<stop offset="1" stop-color="#9C75FF"/>
</linearGradient>
<linearGradient id="paint1_linear_731_631" x1="0.678221" y1="83.3746" x2="58.7517" y2="49.2979" gradientUnits="userSpaceOnUse">
<stop stop-color="#9C75FF"/>
<stop offset="1" stop-color="#5F08E8"/>
</linearGradient>
<linearGradient id="paint2_linear_731_631" x1="62.4431" y1="84.172" x2="129.33" y2="34.2493" gradientUnits="userSpaceOnUse">
<stop stop-color="#5F08E8"/>
<stop offset="1" stop-color="#9C75FF"/>
</linearGradient>
<linearGradient id="paint3_linear_731_631" x1="25.112" y1="44.6825" x2="37.4988" y2="112.646" gradientUnits="userSpaceOnUse">
<stop offset="0.177083" stop-color="#5768FF"/>
<stop offset="0.986431" stop-color="#CFDDFF"/>
</linearGradient>
<linearGradient id="paint4_linear_731_631" x1="19.158" y1="29.7867" x2="22.0356" y2="76.6724" gradientUnits="userSpaceOnUse">
<stop offset="0.229167" stop-color="#9FA9FF"/>
<stop offset="0.986431" stop-color="#CFDAFF"/>
</linearGradient>
</defs>
</svg>
